<svg width="502" height="173" viewBox="0 0 502 173" fill="none" xmlns="http://www.w3.org/2000/svg">
<rect width="502" height="173" fill="white"/>
<path d="M161.6 92V34.4H185.4C185.96 34.4 186.68 34.4267 187.56 34.48C188.44 34.5067 189.253 34.5867 190 34.72C193.333 35.2267 196.08 36.3333 198.24 38.04C200.427 39.7467 202.04 41.9067 203.08 44.52C204.147 47.1067 204.68 49.9867 204.68 53.16C204.68 56.3067 204.147 59.1867 203.08 61.8C202.013 64.3867 200.387 66.5333 198.2 68.24C196.04 69.9467 193.307 71.0533 190 71.56C189.253 71.6667 188.427 71.7467 187.52 71.8C186.64 71.8533 185.933 71.88 185.4 71.88H171.24V92H161.6ZM171.24 62.88H185C185.533 62.88 186.133 62.8533 186.8 62.8C187.467 62.7467 188.08 62.64 188.64 62.48C190.24 62.08 191.493 61.3733 192.4 60.36C193.333 59.3467 193.987 58.2 194.36 56.92C194.76 55.64 194.96 54.3867 194.96 53.16C194.96 51.9333 194.76 50.68 194.36 49.4C193.987 48.0933 193.333 46.9333 192.4 45.92C191.493 44.9067 190.24 44.2 188.64 43.8C188.08 43.64 187.467 43.5467 186.8 43.52C186.133 43.4667 185.533 43.44 185 43.44H171.24V62.88ZM213.494 92V33.2H223.134V92H213.494ZM251.316 93.24C248.116 93.24 245.476 92.7067 243.396 91.64C241.316 90.5733 239.662 89.2133 238.436 87.56C237.209 85.9067 236.302 84.1467 235.716 82.28C235.129 80.4133 234.742 78.6533 234.556 77C234.396 75.32 234.316 73.96 234.316 72.92V48.8H244.076V69.6C244.076 70.9333 244.169 72.44 244.356 74.12C244.542 75.7733 244.969 77.3733 245.636 78.92C246.329 80.44 247.342 81.6933 248.676 82.68C250.036 83.6667 251.862 84.16 254.156 84.16C255.382 84.16 256.596 83.96 257.796 83.56C258.996 83.16 260.076 82.48 261.036 81.52C262.022 80.5333 262.809 79.1867 263.396 77.48C263.982 75.7733 264.276 73.6133 264.276 71L269.996 73.44C269.996 77.12 269.276 80.4533 267.836 83.44C266.422 86.4267 264.329 88.8133 261.556 90.6C258.782 92.36 255.369 93.24 251.316 93.24ZM265.436 92V78.6H264.276V48.8H273.956V92H265.436ZM337.074 92V65.76C337.074 62.8 336.34 60.4933 334.874 58.84C333.407 57.16 331.42 56.32 328.914 56.32C327.367 56.32 325.98 56.68 324.754 57.4C323.527 58.0933 322.554 59.1333 321.834 60.52C321.114 61.88 320.754 63.5067 320.754 65.4L316.474 62.88C316.447 59.8933 317.114 57.2667 318.474 55C319.86 52.7067 321.727 50.92 324.074 49.64C326.42 48.36 329.034 47.72 331.914 47.72C336.687 47.72 340.34 49.16 342.874 52.04C345.434 54.8933 346.714 58.6533 346.714 63.32V92H337.074ZM285.114 92V48.8H293.634V62.2H294.834V92H285.114ZM311.154 92V65.88C311.154 62.8667 310.42 60.52 308.954 58.84C307.487 57.16 305.487 56.32 302.954 56.32C300.5 56.32 298.527 57.16 297.034 58.84C295.567 60.52 294.834 62.7067 294.834 65.4L290.514 62.52C290.514 59.72 291.207 57.2 292.594 54.96C293.98 52.72 295.847 50.96 298.194 49.68C300.567 48.3733 303.22 47.72 306.154 47.72C309.38 47.72 312.074 48.4133 314.234 49.8C316.42 51.16 318.047 53.0267 319.114 55.4C320.207 57.7467 320.754 60.4 320.754 63.36V92H311.154Z" fill="#253041"/>
<path d="M381.507 93.2C375.747 93.2 370.814 91.9467 366.707 89.44C362.6 86.9067 359.44 83.3867 357.227 78.88C355.04 74.3733 353.947 69.1467 353.947 63.2C353.947 57.2533 355.04 52.0267 357.227 47.52C359.44 43.0133 362.6 39.5067 366.707 37C370.814 34.4667 375.747 33.2 381.507 33.2C388.147 33.2 393.68 34.8667 398.107 38.2C402.534 41.5067 405.64 45.9733 407.427 51.6L397.707 54.28C396.587 50.52 394.68 47.5867 391.987 45.48C389.294 43.3467 385.8 42.28 381.507 42.28C377.64 42.28 374.414 43.1467 371.827 44.88C369.267 46.6133 367.334 49.0533 366.027 52.2C364.747 55.32 364.094 58.9867 364.067 63.2C364.067 67.4133 364.707 71.0933 365.987 74.24C367.294 77.36 369.24 79.7867 371.827 81.52C374.414 83.2533 377.64 84.12 381.507 84.12C385.8 84.12 389.294 83.0533 391.987 80.92C394.68 78.7867 396.587 75.8533 397.707 72.12L407.427 74.8C405.64 80.4267 402.534 84.9067 398.107 88.24C393.68 91.5467 388.147 93.2 381.507 93.2ZM435.289 93.2C430.969 93.2 427.196 92.2267 423.969 90.28C420.743 88.3333 418.236 85.6533 416.449 82.24C414.689 78.8 413.809 74.8533 413.809 70.4C413.809 65.8667 414.716 61.8933 416.529 58.48C418.343 55.0667 420.863 52.4 424.089 50.48C427.316 48.56 431.049 47.6 435.289 47.6C439.636 47.6 443.423 48.5733 446.649 50.52C449.876 52.4667 452.383 55.16 454.169 58.6C455.956 62.0133 456.849 65.9467 456.849 70.4C456.849 74.88 455.943 78.84 454.129 82.28C452.343 85.6933 449.836 88.3733 446.609 90.32C443.383 92.24 439.609 93.2 435.289 93.2ZM435.289 84.16C439.129 84.16 441.983 82.88 443.849 80.32C445.716 77.76 446.649 74.4533 446.649 70.4C446.649 66.2133 445.703 62.88 443.809 60.4C441.916 57.8933 439.076 56.64 435.289 56.64C432.703 56.64 430.569 57.2267 428.889 58.4C427.236 59.5467 426.009 61.16 425.209 63.24C424.409 65.2933 424.009 67.68 424.009 70.4C424.009 74.5867 424.956 77.9333 426.849 80.44C428.769 82.92 431.583 84.16 435.289 84.16ZM465.7 92V82.12H475.58V92H465.7Z" fill="#0052DA"/>
<path d="M174.06 126.99C175.3 127.33 176.26 127.95 176.94 128.85C177.62 129.75 177.96 130.86 177.96 132.18C177.96 134.02 177.32 135.45 176.04 136.47C174.78 137.49 173.01 138 170.73 138H161.49V116.64H170.43C172.63 116.64 174.34 117.13 175.56 118.11C176.8 119.09 177.42 120.46 177.42 122.22C177.42 123.36 177.12 124.35 176.52 125.19C175.94 126.01 175.12 126.61 174.06 126.99ZM164.55 125.91H169.95C172.93 125.91 174.42 124.76 174.42 122.46C174.42 120.24 172.93 119.13 169.95 119.13H164.55V125.91ZM170.43 135.51C171.99 135.51 173.13 135.23 173.85 134.67C174.57 134.09 174.93 133.2 174.93 132C174.93 130.78 174.56 129.88 173.82 129.3C173.1 128.7 171.97 128.4 170.43 128.4H164.55V135.51H170.43ZM194.657 130.5H183.857C183.957 134.04 185.567 135.81 188.687 135.81C190.427 135.81 192.017 135.24 193.457 134.1L194.387 136.26C193.707 136.86 192.837 137.34 191.777 137.7C190.737 138.04 189.687 138.21 188.627 138.21C186.207 138.21 184.307 137.52 182.927 136.14C181.547 134.74 180.857 132.83 180.857 130.41C180.857 128.87 181.157 127.5 181.757 126.3C182.377 125.1 183.237 124.17 184.337 123.51C185.437 122.85 186.687 122.52 188.087 122.52C190.127 122.52 191.727 123.18 192.887 124.5C194.067 125.82 194.657 127.65 194.657 129.99V130.5ZM188.147 124.77C187.007 124.77 186.077 125.11 185.357 125.79C184.637 126.47 184.177 127.44 183.977 128.7H191.987C191.867 127.42 191.477 126.45 190.817 125.79C190.157 125.11 189.267 124.77 188.147 124.77ZM203.414 138.21C200.774 138.21 198.694 137.57 197.174 136.29L198.074 134.1C199.654 135.3 201.464 135.9 203.504 135.9C204.544 135.9 205.334 135.73 205.874 135.39C206.414 135.03 206.684 134.53 206.684 133.89C206.684 133.35 206.494 132.93 206.114 132.63C205.754 132.31 205.134 132.04 204.254 131.82L201.734 131.22C200.414 130.94 199.404 130.45 198.704 129.75C198.024 129.03 197.684 128.14 197.684 127.08C197.684 125.72 198.224 124.62 199.304 123.78C200.404 122.94 201.854 122.52 203.654 122.52C204.734 122.52 205.754 122.69 206.714 123.03C207.694 123.37 208.524 123.85 209.204 124.47L208.274 126.6C206.814 125.44 205.274 124.86 203.654 124.86C202.674 124.86 201.914 125.05 201.374 125.43C200.834 125.79 200.564 126.3 200.564 126.96C200.564 127.48 200.734 127.9 201.074 128.22C201.414 128.54 201.954 128.79 202.694 128.97L205.274 129.6C206.714 129.92 207.774 130.43 208.454 131.13C209.154 131.81 209.504 132.7 209.504 133.8C209.504 135.16 208.954 136.24 207.854 137.04C206.774 137.82 205.294 138.21 203.414 138.21ZM216.859 125.22V132.81C216.859 133.85 217.079 134.59 217.519 135.03C217.979 135.45 218.609 135.66 219.409 135.66C219.929 135.66 220.459 135.58 220.999 135.42V137.88C220.339 138.1 219.589 138.21 218.749 138.21C217.189 138.21 215.979 137.77 215.119 136.89C214.259 136.01 213.829 134.73 213.829 133.05V125.22H210.889V122.88H213.829V119.1L216.859 118.05V122.88H221.029V125.22H216.859ZM232.095 116.64H240.975C243.215 116.64 244.955 117.19 246.195 118.29C247.455 119.37 248.085 120.85 248.085 122.73C248.085 124.61 247.445 126.1 246.165 127.2C244.905 128.28 243.175 128.82 240.975 128.82H235.185V138H232.095V116.64ZM240.615 126.36C242.095 126.36 243.205 126.05 243.945 125.43C244.705 124.81 245.085 123.91 245.085 122.73C245.085 121.57 244.705 120.68 243.945 120.06C243.205 119.44 242.095 119.13 240.615 119.13H235.185V126.36H240.615ZM251.572 115.92H254.572V138H251.572V115.92ZM272.153 122.88V138H269.213V135.48C268.733 136.36 268.073 137.04 267.233 137.52C266.393 137.98 265.443 138.21 264.383 138.21C260.743 138.21 258.923 136.19 258.923 132.15V122.88H261.923V132.12C261.923 133.36 262.173 134.28 262.673 134.88C263.193 135.46 263.973 135.75 265.013 135.75C266.253 135.75 267.243 135.35 267.983 134.55C268.743 133.75 269.123 132.69 269.123 131.37V122.88H272.153ZM293.841 122.52C297.201 122.52 298.881 124.54 298.881 128.58V138H295.851V128.73C295.851 127.43 295.621 126.48 295.161 125.88C294.721 125.28 294.001 124.98 293.001 124.98C291.841 124.98 290.921 125.38 290.241 126.18C289.581 126.98 289.251 128.07 289.251 129.45V138H286.221V128.73C286.221 127.43 285.991 126.48 285.531 125.88C285.091 125.28 284.371 124.98 283.371 124.98C282.211 124.98 281.291 125.38 280.611 126.18C279.931 126.98 279.591 128.07 279.591 129.45V138H276.591V127.14C276.591 125.56 276.511 124.14 276.351 122.88H279.171L279.441 125.4C279.881 124.48 280.511 123.77 281.331 123.27C282.151 122.77 283.111 122.52 284.211 122.52C286.551 122.52 288.081 123.49 288.801 125.43C289.261 124.53 289.931 123.82 290.811 123.3C291.711 122.78 292.721 122.52 293.841 122.52ZM311.232 122.52C312.552 122.52 313.722 122.84 314.742 123.48C315.762 124.12 316.552 125.03 317.112 126.21C317.672 127.39 317.952 128.76 317.952 130.32C317.952 131.88 317.662 133.26 317.082 134.46C316.522 135.64 315.732 136.56 314.712 137.22C313.692 137.88 312.532 138.21 311.232 138.21C310.072 138.21 309.052 137.97 308.172 137.49C307.312 136.99 306.662 136.28 306.222 135.36V138H303.222V115.92H306.222V125.37C306.662 124.47 307.312 123.77 308.172 123.27C309.052 122.77 310.072 122.52 311.232 122.52ZM310.542 135.81C311.902 135.81 312.962 135.33 313.722 134.37C314.482 133.39 314.862 132.04 314.862 130.32C314.862 128.62 314.482 127.3 313.722 126.36C312.962 125.42 311.902 124.95 310.542 124.95C309.162 124.95 308.092 125.42 307.332 126.36C306.592 127.3 306.222 128.64 306.222 130.38C306.222 132.12 306.592 133.46 307.332 134.4C308.092 135.34 309.162 135.81 310.542 135.81ZM334.403 130.5H323.603C323.703 134.04 325.313 135.81 328.433 135.81C330.173 135.81 331.763 135.24 333.203 134.1L334.133 136.26C333.453 136.86 332.583 137.34 331.523 137.7C330.483 138.04 329.433 138.21 328.373 138.21C325.953 138.21 324.053 137.52 322.673 136.14C321.293 134.74 320.603 132.83 320.603 130.41C320.603 128.87 320.903 127.5 321.503 126.3C322.123 125.1 322.983 124.17 324.083 123.51C325.183 122.85 326.433 122.52 327.833 122.52C329.873 122.52 331.473 123.18 332.633 124.5C333.813 125.82 334.403 127.65 334.403 129.99V130.5ZM327.893 124.77C326.753 124.77 325.823 125.11 325.103 125.79C324.383 126.47 323.923 127.44 323.723 128.7H331.733C331.613 127.42 331.223 126.45 330.563 125.79C329.903 125.11 329.013 124.77 327.893 124.77ZM345.41 122.52C345.87 122.52 346.35 122.59 346.85 122.73L346.79 125.49C346.25 125.29 345.66 125.19 345.02 125.19C343.64 125.19 342.6 125.61 341.9 126.45C341.22 127.27 340.88 128.31 340.88 129.57V138H337.88V127.14C337.88 125.56 337.8 124.14 337.64 122.88H340.46L340.73 125.61C341.13 124.61 341.75 123.85 342.59 123.33C343.43 122.79 344.37 122.52 345.41 122.52ZM364.418 138.24C362.758 138.24 361.238 138.02 359.858 137.58C358.498 137.14 357.318 136.48 356.318 135.6L357.428 133.32C358.468 134.16 359.548 134.77 360.668 135.15C361.788 135.53 363.048 135.72 364.448 135.72C366.048 135.72 367.288 135.42 368.168 134.82C369.048 134.22 369.488 133.37 369.488 132.27C369.488 131.35 369.078 130.66 368.258 130.2C367.438 129.72 366.138 129.28 364.358 128.88C362.658 128.52 361.268 128.11 360.188 127.65C359.108 127.17 358.258 126.54 357.638 125.76C357.018 124.96 356.708 123.94 356.708 122.7C356.708 121.46 357.038 120.37 357.698 119.43C358.358 118.47 359.288 117.73 360.488 117.21C361.708 116.67 363.108 116.4 364.688 116.4C366.188 116.4 367.588 116.63 368.888 117.09C370.208 117.55 371.308 118.2 372.188 119.04L371.078 121.32C370.098 120.5 369.088 119.9 368.048 119.52C367.008 119.12 365.898 118.92 364.718 118.92C363.178 118.92 361.968 119.25 361.088 119.91C360.208 120.55 359.768 121.43 359.768 122.55C359.768 123.51 360.148 124.24 360.908 124.74C361.688 125.24 362.928 125.69 364.628 126.09C366.408 126.49 367.848 126.91 368.948 127.35C370.048 127.79 370.928 128.39 371.588 129.15C372.248 129.91 372.577 130.89 372.577 132.09C372.577 133.33 372.248 134.41 371.588 135.33C370.928 136.25 369.978 136.97 368.738 137.49C367.518 137.99 366.078 138.24 364.418 138.24ZM389.042 130.5H378.242C378.342 134.04 379.952 135.81 383.072 135.81C384.812 135.81 386.402 135.24 387.842 134.1L388.772 136.26C388.092 136.86 387.222 137.34 386.162 137.7C385.122 138.04 384.072 138.21 383.012 138.21C380.592 138.21 378.692 137.52 377.312 136.14C375.932 134.74 375.242 132.83 375.242 130.41C375.242 128.87 375.542 127.5 376.142 126.3C376.762 125.1 377.622 124.17 378.722 123.51C379.822 122.85 381.072 122.52 382.472 122.52C384.512 122.52 386.112 123.18 387.272 124.5C388.452 125.82 389.042 127.65 389.042 129.99V130.5ZM382.532 124.77C381.392 124.77 380.462 125.11 379.742 125.79C379.022 126.47 378.562 127.44 378.362 128.7H386.372C386.252 127.42 385.862 126.45 385.202 125.79C384.542 125.11 383.652 124.77 382.532 124.77ZM400.049 122.52C400.509 122.52 400.989 122.59 401.489 122.73L401.429 125.49C400.889 125.29 400.299 125.19 399.659 125.19C398.279 125.19 397.239 125.61 396.539 126.45C395.859 127.27 395.519 128.31 395.519 129.57V138H392.519V127.14C392.519 125.56 392.439 124.14 392.279 122.88H395.099L395.369 125.61C395.769 124.61 396.389 123.85 397.229 123.33C398.069 122.79 399.009 122.52 400.049 122.52ZM418.446 122.91L411.876 138H409.146L402.636 122.91H405.846L410.586 134.58L415.416 122.91H418.446ZM420.79 122.88H423.79V138H420.79V122.88ZM424.03 116.28V119.46H420.52V116.28H424.03ZM434.802 138.21C433.282 138.21 431.952 137.89 430.812 137.25C429.692 136.61 428.832 135.71 428.232 134.55C427.632 133.37 427.332 132 427.332 130.44C427.332 128.88 427.642 127.5 428.262 126.3C428.902 125.1 429.792 124.17 430.932 123.51C432.072 122.85 433.402 122.52 434.922 122.52C435.982 122.52 437.002 122.7 437.982 123.06C438.962 123.4 439.752 123.87 440.352 124.47L439.422 126.66C438.002 125.54 436.572 124.98 435.132 124.98C433.672 124.98 432.532 125.46 431.712 126.42C430.892 127.36 430.482 128.69 430.482 130.41C430.482 132.13 430.892 133.46 431.712 134.4C432.532 135.32 433.672 135.78 435.132 135.78C436.612 135.78 438.042 135.22 439.422 134.1L440.352 136.29C439.712 136.89 438.892 137.36 437.892 137.7C436.912 138.04 435.882 138.21 434.802 138.21ZM456.102 130.5H445.302C445.402 134.04 447.012 135.81 450.132 135.81C451.872 135.81 453.462 135.24 454.902 134.1L455.832 136.26C455.152 136.86 454.282 137.34 453.222 137.7C452.182 138.04 451.132 138.21 450.072 138.21C447.652 138.21 445.752 137.52 444.372 136.14C442.992 134.74 442.302 132.83 442.302 130.41C442.302 128.87 442.602 127.5 443.202 126.3C443.822 125.1 444.682 124.17 445.782 123.51C446.882 122.85 448.132 122.52 449.532 122.52C451.572 122.52 453.172 123.18 454.332 124.5C455.512 125.82 456.102 127.65 456.102 129.99V130.5ZM449.592 124.77C448.452 124.77 447.522 125.11 446.802 125.79C446.082 126.47 445.622 127.44 445.422 128.7H453.432C453.312 127.42 452.922 126.45 452.262 125.79C451.602 125.11 450.712 124.77 449.592 124.77Z" fill="#585858"/>
<path d="M36.2773 66.2109H52.2681C54.375 64.1551 56.7838 62.4775 59.3828 61.2237V46.6602H57.4894C55.5229 46.6602 53.6509 47.155 51.9253 48.1313C49.4152 49.5511 46.3625 50.4688 44.1484 50.4688C35.7482 50.4688 28.9141 43.6346 28.9141 35.2344C28.9141 26.8341 35.7482 20 44.1484 20C46.3683 20 49.4261 20.9202 51.9383 22.3443C53.6521 23.316 55.5283 23.8086 57.5143 23.8086H84.1029C86.0607 23.8086 87.9892 23.3023 89.6787 22.3443C92.1911 20.9202 95.2488 20 97.4688 20C105.869 20 112.703 26.8341 112.703 35.2344C112.703 43.6346 105.869 50.4688 97.4688 50.4688C95.2544 50.4688 92.2017 49.5511 89.6916 48.131C87.9904 47.1687 86.0666 46.6602 84.1278 46.6602H82.2344V61.2237C84.8336 62.4775 87.2422 64.1551 89.3491 66.2109H109.804C111.376 61.778 115.609 58.5938 120.574 58.5938H128.191C130.295 58.5938 132 60.299 132 62.4023V108.105C132 110.209 130.295 111.914 128.191 111.914H120.574C115.609 111.914 111.376 108.73 109.804 104.297H89.3491C84.3674 109.158 77.7034 111.914 70.8086 111.914C63.9138 111.914 57.2497 109.158 52.2681 104.297H43.8945C41.7945 104.297 40.0859 106.005 40.0859 108.105V115.723C40.0859 117.826 38.3807 119.531 36.2773 119.531H21.043H5.80859C3.70523 119.531 2 117.826 2 115.723V100.488C2 81.5878 17.3768 66.2109 36.2773 66.2109ZM116.766 100.488C116.766 102.588 118.474 104.297 120.574 104.297H124.383V66.2109H120.574C118.474 66.2109 116.766 67.9195 116.766 70.0195V100.488ZM84.1278 39.043C87.3783 39.043 90.5991 39.893 93.4423 41.5013C95.129 42.4555 96.897 42.8516 97.4688 42.8516C101.669 42.8516 105.086 39.4345 105.086 35.2344C105.086 31.0343 101.669 27.6172 97.4688 27.6172C96.8949 27.6172 95.1229 28.0143 93.4352 28.971C90.6024 30.577 87.3752 31.4258 84.1029 31.4258H57.5141C54.242 31.4258 51.0148 30.577 48.1817 28.971C46.4943 28.0143 44.7223 27.6172 44.1484 27.6172C39.9483 27.6172 36.5312 31.0343 36.5312 35.2344C36.5312 39.4345 39.9483 42.8516 44.1484 42.8516C44.72 42.8516 46.4882 42.4555 48.1749 41.5013C51.0179 39.893 54.2389 39.043 57.4894 39.043H63.1914C65.2948 39.043 67 40.7482 67 42.8516V58.8753C68.2553 58.6892 69.5279 58.5938 70.8086 58.5938C72.0893 58.5938 73.3619 58.6892 74.6172 58.8753V42.8516C74.6172 40.7482 76.3224 39.043 78.4258 39.043H84.1278ZM9.61719 111.914H32.4688V108.105C32.4688 101.805 37.5944 96.6797 43.8945 96.6797H53.8875C54.9666 96.6797 55.9949 97.1375 56.7173 97.9391C60.4106 102.039 65.4151 104.297 70.8086 104.297C76.2021 104.297 81.2066 102.039 84.9001 97.9391C85.6222 97.1375 86.6508 96.6797 87.7299 96.6797H109.148V73.8281H87.7297C86.6506 73.8281 85.6222 73.3703 84.8999 72.5687C81.2066 68.4689 76.2021 66.2109 70.8086 66.2109C65.4151 66.2109 60.4106 68.4689 56.7171 72.5687C55.9949 73.3703 54.9664 73.8281 53.8873 73.8281H36.2773C21.5769 73.8281 9.61719 85.7879 9.61719 100.488V111.914Z" fill="#0052DA"/>
<path d="M13.9399 127.468C15.897 124.094 17.828 121.293 17.9093 121.175C18.6204 120.146 19.7917 119.531 21.043 119.531C22.2942 119.531 23.4655 120.146 24.1767 121.175C24.2579 121.293 26.1889 124.094 28.146 127.468C32.0206 134.148 32.4688 137.006 32.4688 138.574C32.4688 144.874 27.3431 150 21.043 150C14.7428 150 9.61719 144.874 9.61719 138.574C9.61719 137.006 10.0653 134.148 13.9399 127.468ZM21.043 142.383C23.143 142.383 24.8516 140.674 24.8516 138.579C24.8206 137.414 23.2362 134.095 21.0422 130.399C18.8502 134.091 17.2669 137.409 17.2344 138.577C17.2359 140.676 18.9439 142.383 21.043 142.383Z" fill="#0052DA"/>
</svg>
